<?xml version="1.0" standalone="no"?>
<!DOCTYPE svg PUBLIC "-//W3C//DTD SVG 20010904//EN"
 "http://www.w3.org/TR/2001/REC-SVG-20010904/DTD/svg10.dtd">
<svg version="1.0" xmlns="http://www.w3.org/2000/svg"
 width="50.000000pt" height="50.000000pt" viewBox="0 0 50.000000 50.000000"
 preserveAspectRatio="xMidYMid meet">

<g transform="translate(0.000000,50.000000) scale(0.100000,-0.100000)"
fill="#000000" stroke="none">
<path d="M374 325 c-4 -8 -10 -15 -16 -15 -5 0 -6 5 -3 10 3 6 -1 10 -10 10
-12 0 -11 -6 7 -34 15 -23 27 -32 38 -28 13 5 12 7 -2 10 -10 2 -18 10 -18 18
0 8 4 12 10 9 6 -4 7 1 3 11 -5 13 -3 15 7 9 9 -5 11 -4 6 3 -10 16 -15 15
-22 -3z"/>
<path d="M325 197 c1 -23 -2 -26 -19 -21 -12 3 -16 2 -11 -3 6 -4 17 -17 25
-27 14 -18 13 -18 -10 -12 -24 7 -24 6 -5 -9 17 -14 20 -14 28 1 6 11 5 19 -3
24 -9 6 -7 11 6 19 11 6 14 11 7 11 -6 0 -14 10 -16 23 -3 15 -4 13 -2 -6z"/>
<path d="M93 197 c-8 -18 -8 -24 1 -24 7 0 13 11 14 24 2 29 -2 29 -15 0z"/>
<path d="M391 204 c0 -11 3 -14 6 -6 3 7 2 16 -1 19 -3 4 -6 -2 -5 -13z"/>
<path d="M130 166 c7 -7 13 -7 20 0 6 6 3 10 -10 10 -13 0 -16 -4 -10 -10z"/>
<path d="M201 170 c10 -7 49 -2 49 5 0 2 -14 3 -31 3 -17 -1 -25 -4 -18 -8z"/>
<path d="M25 150 c-3 -5 -1 -10 4 -10 6 0 11 5 11 10 0 6 -2 10 -4 10 -3 0 -8
-4 -11 -10z"/>
<path d="M230 150 c0 -5 5 -10 11 -10 5 0 7 5 4 10 -3 6 -8 10 -11 10 -2 0 -4
-4 -4 -10z"/>
<path d="M101 134 c0 -11 3 -14 6 -6 3 7 2 16 -1 19 -3 4 -6 -2 -5 -13z"/>
<path d="M160 110 c0 -11 6 -20 13 -20 8 0 7 -4 -3 -10 -9 -6 -10 -10 -3 -10
6 0 20 -3 30 -7 17 -7 17 -6 1 11 -17 16 -22 30 -19 49 0 4 -3 7 -9 7 -5 0
-10 -9 -10 -20z"/>
<path d="M239 128 c-6 -22 -5 -38 3 -38 6 0 8 6 5 14 -3 8 -1 17 6 20 9 3 9 5
0 5 -7 1 -13 0 -14 -1z"/>
<path d="M356 107 c3 -10 9 -15 12 -12 3 3 0 11 -7 18 -10 9 -11 8 -5 -6z"/>
<path d="M113 78 c1 -20 4 -34 6 -32 2 2 9 0 15 -5 6 -4 20 -11 31 -14 20 -7
20 -7 1 8 -11 8 -23 15 -28 15 -4 0 -12 15 -17 33 l-9 32 1 -37z"/>
<path d="M337 83 c-4 -3 -7 -11 -7 -17 0 -6 5 -5 12 2 6 6 9 14 7 17 -3 3 -9
2 -12 -2z"/>
<path d="M273 58 c1 -14 5 -24 9 -22 4 2 9 0 13 -6 3 -5 11 -10 18 -10 6 0 4
6 -5 13 -8 6 -20 21 -26 32 -9 17 -10 17 -9 -7z"/>
<path d="M80 41 c0 -6 4 -13 10 -16 6 -3 7 1 4 9 -7 18 -14 21 -14 7z"/>
<path d="M206 37 c-14 -10 -11 -12 19 -12 40 0 41 1 16 14 -13 7 -23 7 -35 -2z"/>
</g>
</svg>
